<svg xmlns="http://www.w3.org/2000/svg" xmlns:xlink="http://www.w3.org/1999/xlink" width="24" height="24" viewBox="0 0 24 24">
    <defs>
        <path id="a" d="M19.7 5.7l-14 14c-.2.2-.4.3-.7.3-.3 0-.5-.1-.7-.3-.4-.4-.4-1 0-1.4l14-14c.4-.4 1-.4 1.4 0 .4.4.4 1 0 1.4zM3 6.5C3 4.6 4.6 3 6.5 3S10 4.6 10 6.5 8.4 10 6.5 10 3 8.4 3 6.5zm2 0C5 7.3 5.7 8 6.5 8S8 7.3 8 6.5 7.3 5 6.5 5 5 5.7 5 6.5zm16 11c0 1.9-1.6 3.5-3.5 3.5S14 19.4 14 17.5s1.6-3.5 3.5-3.5 3.5 1.6 3.5 3.5zm-2 0c0-.8-.7-1.5-1.5-1.5s-1.5.7-1.5 1.5.7 1.5 1.5 1.5 1.5-.7 1.5-1.5z"/>
    </defs>
    <use fill-rule="evenodd" xlink:href="#a"/>
</svg>
